# xmcd
#
# Track frame offsets:
# 150
# 24377
# 40200
# 54887
# 68350
# 86287
# 97635
# 113910
# 129182
# 149562
# 162737
# 179662
#
# Disc length: 2575 seconds
#
#
# Revision: 3
# Processed by: cddbd v1.5.2PL0 Copyright (c) Steve Scherf et al.
# Submitted via: FreeRIP 2.96 
#
DISCID=930a0d0c
DTITLE=The Judds - All Time Favorites
DYEAR=1900
DGENRE=
TTITLE0=Love Can Build A Bridge
TTITLE1=Why Not Me
TTITLE2=Mama, He's Crazy
TTITLE3=Bye Bye Baby Blues
TTITLE4=Love Is Alive
TTITLE5=Don't Be Cruel
TTITLE6=Guardian Angels
TTITLE7=Have Mercy
TTITLE8=River Of Time
TTITLE9=Girls Night Out
TTITLE10=Old Pictures
TTITLE11=Let Me Tell You About Love
EXTD=
EXTT0=
EXTT1=
EXTT2=
EXTT3=
EXTT4=
EXTT5=
EXTT6=
EXTT7=
EXTT8=
EXTT9=
EXTT10=
EXTT11=
PLAYORDER=
